<svg width="174" height="71" viewBox="0 0 174 71" fill="none" xmlns="http://www.w3.org/2000/svg">
<path d="M70.7716 35.3858C70.7716 54.9289 54.9289 70.7716 35.3858 70.7716C15.8428 70.7716 0 54.9289 0 35.3858C0 15.8428 15.8428 0 35.3858 0C54.9289 0 70.7716 15.8428 70.7716 35.3858Z" fill="#15486D"/>
<path d="M29.9921 21.7397L34.827 30.7038L39.662 21.7397H45.7145L38.2503 34.48L45.9086 47.432H39.8032L34.827 38.2915L29.8509 47.432H23.7101L31.3861 34.48L23.9042 21.7397H29.9921Z" fill="white"/>
<path d="M102.94 43.3029V47.4321H84.7295V43.3029H102.94ZM102.675 24.6866L87.0764 47.4321H83.3531V44.397L99.0756 21.7397H102.675V24.6866ZM100.858 21.7397V25.8865H83.3708V21.7397H100.858Z" fill="#3989C3"/>
<path d="M126.956 33.9859V35.2035C126.956 37.1563 126.691 38.9091 126.162 40.4619C125.633 42.0148 124.886 43.3382 123.921 44.4323C122.956 45.5145 121.803 46.3439 120.462 46.9203C119.133 47.4968 117.657 47.785 116.033 47.785C114.422 47.785 112.945 47.4968 111.604 46.9203C110.275 46.3439 109.122 45.5145 108.146 44.4323C107.169 43.3382 106.41 42.0148 105.869 40.4619C105.34 38.9091 105.075 37.1563 105.075 35.2035V33.9859C105.075 32.0213 105.34 30.2685 105.869 28.7275C106.399 27.1746 107.146 25.8512 108.11 24.7571C109.087 23.6631 110.24 22.8279 111.569 22.2514C112.91 21.675 114.386 21.3868 115.998 21.3868C117.621 21.3868 119.098 21.675 120.427 22.2514C121.768 22.8279 122.921 23.6631 123.886 24.7571C124.862 25.8512 125.615 27.1746 126.144 28.7275C126.685 30.2685 126.956 32.0213 126.956 33.9859ZM121.609 35.2035V33.9506C121.609 32.586 121.486 31.3861 121.239 30.3509C120.992 29.3156 120.627 28.4451 120.145 27.7393C119.662 27.0335 119.074 26.5041 118.38 26.1512C117.686 25.7865 116.892 25.6041 115.998 25.6041C115.104 25.6041 114.31 25.7865 113.616 26.1512C112.933 26.5041 112.351 27.0335 111.869 27.7393C111.398 28.4451 111.039 29.3156 110.792 30.3509C110.545 31.3861 110.422 32.586 110.422 33.9506V35.2035C110.422 36.5563 110.545 37.7562 110.792 38.8032C111.039 39.8385 111.404 40.7149 111.886 41.4325C112.369 42.1383 112.957 42.6736 113.651 43.0382C114.345 43.4029 115.139 43.5853 116.033 43.5853C116.927 43.5853 117.721 43.4029 118.415 43.0382C119.11 42.6736 119.692 42.1383 120.162 41.4325C120.633 40.7149 120.992 39.8385 121.239 38.8032C121.486 37.7562 121.609 36.5563 121.609 35.2035Z" fill="#3989C3"/>
<path d="M151.678 21.7397V47.4321H146.384L136.061 30.2097V47.4321H130.768V21.7397H136.061L146.402 38.9797V21.7397H151.678Z" fill="#3989C3"/>
<path d="M173.523 43.3029V47.4321H159.848V43.3029H173.523ZM161.577 21.7397V47.4321H156.283V21.7397H161.577ZM171.741 32.2037V36.2269H159.848V32.2037H171.741ZM173.506 21.7397V25.8865H159.848V21.7397H173.506Z" fill="#3989C3"/>
</svg>
